<svg xmlns="http://www.w3.org/2000/svg" viewBox="0 0 64 64" role="img" aria-label="JMG favicon">
  <rect width="64" height="64" rx="12" fill="#1F1A14"></rect>
  <path d="M35.916 40.896L35.916 40.896Q35.916 43.492 33.562 45.087Q31.208 46.682 27.314 46.682L27.314 46.682Q23.618 46.682 21.605 45.197Q19.592 43.712 19.592 41.292L19.592 41.292Q19.592 39.840 20.384 38.927Q21.176 38.014 22.562 38.014L22.562 38.014Q23.706 38.014 24.421 38.817Q25.136 39.620 25.136 41.028L25.136 41.028L25.136 42.502Q25.136 43.624 25.719 44.262Q26.302 44.900 27.644 44.900L27.644 44.900Q29.052 44.900 29.998 44.174Q30.944 43.448 30.944 42.040L30.944 42.040Q30.944 40.962 30.471 40.060Q29.998 39.158 29.393 38.168Q28.788 37.178 28.326 35.880Q27.864 34.582 27.864 32.756L27.864 32.756L27.864 18.610Q27.864 18.104 27.600 17.796Q27.336 17.488 26.764 17.378L26.764 17.378L25.180 17.114Q24.674 17.026 24.443 16.784Q24.212 16.542 24.212 16.102L24.212 16.102Q24.212 15.684 24.509 15.442Q24.806 15.200 25.400 15.200L25.400 15.200L35.960 15.200Q36.576 15.200 36.862 15.442Q37.148 15.684 37.148 16.102L37.148 16.102Q37.148 16.850 36.268 17.114L36.268 17.114L34.904 17.378Q34.398 17.510 34.112 17.818Q33.826 18.126 33.826 18.588L33.826 18.588L33.826 32.360Q33.826 33.900 34.145 35Q34.464 36.100 34.871 37.002Q35.278 37.904 35.597 38.817Q35.916 39.730 35.916 40.896Z" fill="#F4EFE6"></path>
  <circle cx="41.66" cy="43.25" r="2.75" fill="#D96833"></circle>
</svg>