<svg xmlns="http://www.w3.org/2000/svg" viewBox="0 0 480 160" role="img" aria-label="JMG primary mark with persimmon stamp">
  <path d="M146.060 101.760L146.060 101.760Q146.060 110.020 138.570 115.095Q131.080 120.170 118.690 120.170L118.690 120.170Q106.930 120.170 100.525 115.445Q94.120 110.720 94.120 103.020L94.120 103.020Q94.120 98.400 96.640 95.495Q99.160 92.590 103.570 92.590L103.570 92.590Q107.210 92.590 109.485 95.145Q111.760 97.700 111.760 102.180L111.760 102.180L111.760 106.870Q111.760 110.440 113.615 112.470Q115.470 114.500 119.740 114.500L119.740 114.500Q124.220 114.500 127.230 112.190Q130.240 109.880 130.240 105.400L130.240 105.400Q130.240 101.970 128.735 99.100Q127.230 96.230 125.305 93.080Q123.380 89.930 121.910 85.800Q120.440 81.670 120.440 75.860L120.440 75.860L120.440 30.850Q120.440 29.240 119.600 28.260Q118.760 27.280 116.940 26.930L116.940 26.930L111.900 26.090Q110.290 25.810 109.555 25.040Q108.820 24.270 108.820 22.870L108.820 22.870Q108.820 21.540 109.765 20.770Q110.710 20.000 112.600 20.000L112.600 20.000L146.200 20.000Q148.160 20.000 149.070 20.770Q149.980 21.540 149.980 22.870L149.980 22.870Q149.980 25.250 147.180 26.090L147.180 26.090L142.840 26.930Q141.230 27.350 140.320 28.330Q139.410 29.310 139.410 30.780L139.410 30.780L139.410 74.600Q139.410 79.500 140.425 83Q141.440 86.500 142.735 89.370Q144.030 92.240 145.045 95.145Q146.060 98.050 146.060 101.760ZM197.020 25.390L222.010 86.500L246.020 25.670Q247.210 22.520 248.890 21.260Q250.570 20.000 253.440 20.000L253.440 20.000L271.850 20.000Q273.880 20.000 274.860 20.770Q275.840 21.540 275.840 22.870L275.840 22.870Q275.840 23.990 275.175 24.795Q274.510 25.600 272.970 26.020L272.970 26.020L269.120 27.000Q266.670 27.630 265.830 28.890Q264.990 30.150 265.200 33.090L265.200 33.090L270.660 106.170Q270.800 108.480 271.710 109.460Q272.620 110.440 274.790 111L274.790 111L278.500 111.980Q279.970 112.400 280.600 113.135Q281.230 113.870 281.230 114.990L281.230 114.990Q281.230 116.320 280.250 117.160Q279.270 118 277.310 118L277.310 118L244.970 118Q243.010 118 242.030 117.195Q241.050 116.390 241.050 115.130L241.050 115.130Q241.050 114.010 241.680 113.240Q242.310 112.470 243.920 111.980L243.920 111.980L247.700 111Q250.220 110.370 251.130 109.320Q252.040 108.270 251.900 106.170L251.900 106.170L246.930 43.730L221.520 108.550Q220.400 111.490 219.210 112.365Q218.020 113.240 216.480 113.240L216.480 113.240Q215.290 113.240 214.345 112.890Q213.400 112.540 212.560 111.490Q211.720 110.440 210.880 108.270L210.880 108.270L184.630 44.220L179.520 104.210Q179.310 107.150 180.745 108.585Q182.180 110.020 184.910 111.070L184.910 111.070L188.690 112.260Q189.810 112.750 190.440 113.345Q191.070 113.940 191.070 114.990L191.070 114.990Q191.070 116.390 190.090 117.195Q189.110 118 187.150 118L187.150 118L164.540 118Q162.580 118 161.600 117.195Q160.620 116.390 160.620 115.130L160.620 115.130Q160.620 113.800 161.495 113.100Q162.370 112.400 163.770 111.910L163.770 111.910L166.850 110.860Q169.300 110.090 170.665 108.585Q172.030 107.080 172.310 104.140L172.310 104.140L178.400 33.860Q178.610 30.780 177.630 29.205Q176.650 27.630 174.200 27.000L174.200 27.000L170.560 26.160Q169.020 25.740 168.285 24.970Q167.550 24.200 167.550 22.940L167.550 22.940Q167.550 20.000 171.540 20.000L171.540 20.000L189.740 20.000Q192.470 20.000 194.150 21.050Q195.830 22.100 197.020 25.390L197.020 25.390ZM377.620 84.750L377.620 116.320Q377.620 118.560 376.745 119.575Q375.870 120.590 374.050 120.590L374.050 120.590Q372.370 120.590 371.180 119.470Q369.990 118.350 368.975 116.915Q367.960 115.480 367.015 114.395Q366.070 113.310 364.880 113.310L364.880 113.310Q363.410 113.310 361.415 114.395Q359.420 115.480 356.515 116.915Q353.610 118.350 349.410 119.435Q345.210 120.520 339.330 120.520L339.330 120.520Q327.990 120.520 319.030 116.775Q310.070 113.030 303.770 106.205Q297.470 99.380 294.145 89.965Q290.820 80.550 290.820 69.210L290.820 69.210Q290.820 58.080 294.460 48.665Q298.100 39.250 304.680 32.285Q311.260 25.320 320.115 21.470Q328.970 17.620 339.400 17.620L339.400 17.620Q347.030 17.620 351.825 19.055Q356.620 20.490 359.350 21.960Q362.080 23.430 363.550 23.430L363.550 23.430Q365.300 23.430 366.140 22.170Q366.980 20.910 367.820 19.685Q368.660 18.460 370.410 18.460L370.410 18.460Q371.530 18.460 372.300 19.160Q373.070 19.860 373.560 21.610L373.560 21.610L380.910 45.620Q381.400 47.160 380.665 48.315Q379.930 49.470 378.460 49.680L378.460 49.680Q376.990 49.960 375.800 49.365Q374.610 48.770 373.910 47.300L373.910 47.300Q369.990 38.760 365.125 33.755Q360.260 28.750 354.345 26.580Q348.430 24.410 341.640 24.410L341.640 24.410Q332.400 24.410 325.260 29.485Q318.120 34.560 314.025 43.800Q309.930 53.040 309.930 65.570L309.930 65.570Q309.930 80.340 314.515 90.665Q319.100 100.990 326.940 106.380Q334.780 111.770 344.650 111.770L344.650 111.770Q348.360 111.770 351.265 111.105Q354.170 110.440 356.235 109.180Q358.300 107.920 359.385 106.065Q360.470 104.210 360.470 101.900L360.470 101.900L360.470 84.750Q360.470 83.070 359.595 82.195Q358.720 81.320 356.200 80.830L356.200 80.830L351.440 79.920Q349.830 79.570 348.955 78.800Q348.080 78.030 348.080 76.910L348.080 76.910Q348.080 75.580 349.060 74.880Q350.040 74.180 352 74.180L352 74.180L383.570 74.180Q385.600 74.180 386.580 74.880Q387.560 75.580 387.560 76.840L387.560 76.840Q387.560 77.960 386.895 78.625Q386.230 79.290 384.690 79.780L384.690 79.780L381.680 80.550Q379.510 81.180 378.565 82.055Q377.620 82.930 377.620 84.750L377.620 84.750Z" fill="#1F1A14"></path>
  <circle cx="401.91" cy="109.25" r="8.75" fill="#D96833"></circle>
</svg>